<svg xmlns="http://www.w3.org/2000/svg" width="103.522" height="108" viewBox="0 0 103.522 108">
  <g id="Group_67" data-name="Group 67" transform="translate(-1242 -1495)">
    <path id="Path_19" data-name="Path 19" d="M-751.85,1717.268h18.8a5.835,5.835,0,0,0,3.875-5.023c.43-4.018-1-6.888,4.879-16.5s6.171-13.49,6.171-18.082-5.74-22.53-23.535-22.1-24.97,14.063-24.683,22.1a34.772,34.772,0,0,0,6.027,18.082c2.583,3.875,4.879,11.193,5.31,15.355A9.1,9.1,0,0,0-751.85,1717.268Z" transform="translate(2036 -132)" fill="#002842" stroke="#002842" stroke-width="1"/>
    <line id="Line_67" data-name="Line 67" x2="17" transform="translate(1285.5 1589.5)" fill="none" stroke="#002842" stroke-linecap="round" stroke-width="3"/>
    <line id="Line_68" data-name="Line 68" x2="17" transform="translate(1285.5 1595.5)" fill="none" stroke="#002842" stroke-linecap="round" stroke-width="3"/>
    <line id="Line_69" data-name="Line 69" x2="5" transform="translate(1291.5 1601.5)" fill="none" stroke="#002842" stroke-linecap="round" stroke-width="3"/>
    <path id="Path_20" data-name="Path 20" d="M-748.037,1732.54h12.345l-2.939.849h-6.728Z" transform="translate(2036 -132)" fill="none" stroke="#002842" stroke-linecap="round" stroke-linejoin="round" stroke-width="1"/>
    <line id="Line_70" data-name="Line 70" x1="15" y2="9" transform="translate(1250.5 1562.5)" fill="none" stroke="#002842" stroke-linecap="round" stroke-width="3"/>
    <line id="Line_71" data-name="Line 71" x1="18" transform="translate(1243.5 1546.5)" fill="none" stroke="#002842" stroke-linecap="round" stroke-width="3"/>
    <line id="Line_72" data-name="Line 72" x1="15" y1="9" transform="translate(1250.5 1520.5)" fill="none" stroke="#002842" stroke-linecap="round" stroke-width="3"/>
    <line id="Line_73" data-name="Line 73" x1="9" y1="15" transform="translate(1268.5 1502.5)" fill="none" stroke="#002842" stroke-linecap="round" stroke-width="3"/>
    <line id="Line_74" data-name="Line 74" y1="17" transform="translate(1293.761 1496.5)" fill="none" stroke="#002842" stroke-linecap="round" stroke-width="3"/>
    <line id="Line_75" data-name="Line 75" x2="15" y2="9" transform="translate(1322.022 1562.5)" fill="none" stroke="#002842" stroke-linecap="round" stroke-width="3"/>
    <line id="Line_76" data-name="Line 76" x2="18" transform="translate(1326.022 1546.5)" fill="none" stroke="#002842" stroke-linecap="round" stroke-width="3"/>
    <line id="Line_77" data-name="Line 77" y1="9" x2="15" transform="translate(1322.022 1520.5)" fill="none" stroke="#002842" stroke-linecap="round" stroke-width="3"/>
    <line id="Line_78" data-name="Line 78" y1="15" x2="9" transform="translate(1310.022 1502.5)" fill="none" stroke="#002842" stroke-linecap="round" stroke-width="3"/>
  </g>
</svg>
