<svg xmlns="http://www.w3.org/2000/svg" width="93.508" height="121.316" viewBox="0 0 93.508 121.316">
  <defs>
    <style>
      .cls-1 {
        fill: #002842;
      }

      .cls-2 {
        fill: #fff;
      }
    </style>
  </defs>
  <g id="Group_40" data-name="Group 40" transform="translate(-1206.598 -1937.172)">
    <g id="Group_39" data-name="Group 39">
      <path id="Path_6" data-name="Path 6" class="cls-1" d="M3283.8,2152.023s5.687-29.984,14.647-34.465,13.441-1.723,13.441-1.723,13.786-30.157,32.569-39.979,29.984-10.684,29.984-10.684,1.9,2.929,2.585,20.334-3.306,32.286-10.452,44.218-8.5,12.01-8.5,12.01,5.17,12.53,0,21.318-8.272,12.235-14.82,17.577-7.41,5.859-7.41,5.859-.453-15.321-1.316-19.243-1.678-7.208-1.678-7.208-13.893,3.29-19.461-1.879-4.639-12.725-4.639-12.725a45.94,45.94,0,0,0-16.835,4.639c-8.708,4.33-8.315,3.937-8.315,3.937Z" transform="translate(-2077 -128)"/>
      <path id="Path_7" data-name="Path 7" class="cls-1" d="M3306.248,2156.59s-9.055,1.164-10.232,10.655,2.3,18.64,2.3,18.64,14.089.42,19.817-5,4.938-8.309,5.1-10.427a28.662,28.662,0,0,0,0-4,15.5,15.5,0,0,1-10.9,8.628c-8.157,1.726-7.295,1.177-7.295,1.177a22.751,22.751,0,0,1-1.883-8.236C3303.076,2163.637,3306.248,2156.59,3306.248,2156.59Z" transform="translate(-2077 -128)"/>
      <circle id="Ellipse_12" data-name="Ellipse 12" class="cls-2" cx="10" cy="10" r="10" transform="translate(1267 1959)"/>
    </g>
  </g>
</svg>
