<svg xmlns="http://www.w3.org/2000/svg" width="97" height="113" viewBox="0 0 97 113">
  <g id="Group_68" data-name="Group 68" transform="translate(-804 -1522)">
    <g id="Rectangle_81" data-name="Rectangle 81" transform="translate(804 1613)" fill="none" stroke="#002842" stroke-width="3">
      <rect width="97" height="22" rx="11" stroke="none"/>
      <rect x="1.5" y="1.5" width="94" height="19" rx="9.5" fill="none"/>
    </g>
    <g id="Ellipse_24" data-name="Ellipse 24" transform="translate(810 1619)" fill="none" stroke="#002842" stroke-width="3">
      <circle cx="5" cy="5" r="5" stroke="none"/>
      <circle cx="5" cy="5" r="3.5" fill="none"/>
    </g>
    <g id="Ellipse_26" data-name="Ellipse 26" transform="translate(867 1570)" fill="none" stroke="#002842" stroke-width="3">
      <circle cx="8.5" cy="8.5" r="8.5" stroke="none"/>
      <circle cx="8.5" cy="8.5" r="7" fill="none"/>
    </g>
    <g id="Ellipse_27" data-name="Ellipse 27" transform="translate(815 1545)" fill="none" stroke="#002842" stroke-width="3">
      <circle cx="7.5" cy="7.5" r="7.5" stroke="none"/>
      <circle cx="7.5" cy="7.5" r="6" fill="none"/>
    </g>
    <g id="Ellipse_28" data-name="Ellipse 28" transform="translate(839 1522)" fill="none" stroke="#002842" stroke-width="3">
      <circle cx="11.5" cy="11.5" r="11.5" stroke="none"/>
      <circle cx="11.5" cy="11.5" r="10" fill="none"/>
    </g>
    <g id="Ellipse_25" data-name="Ellipse 25" transform="translate(885 1619)" fill="none" stroke="#002842" stroke-width="3">
      <circle cx="5" cy="5" r="5" stroke="none"/>
      <circle cx="5" cy="5" r="3.5" fill="none"/>
    </g>
    <path id="Path_21" data-name="Path 21" d="M-1217.844,1690.017l-4.077,7.923,3.461,5" transform="translate(2036 -132)" fill="none" stroke="#002842" stroke-linecap="round" stroke-width="3"/>
    <path id="Path_22" data-name="Path 22" d="M-1210.229,1690.017l2.846,9.077-4.154,4.462" transform="translate(2036 -132)" fill="none" stroke="#002842" stroke-linecap="round" stroke-width="3"/>
    <line id="Line_79" data-name="Line 79" y1="11" x2="16" transform="translate(825.5 1536.5)" fill="none" stroke="#002842" stroke-width="3"/>
    <line id="Line_80" data-name="Line 80" y1="11" x2="16" transform="translate(828.617 1540.5)" fill="none" stroke="#002842" stroke-width="3"/>
    <line id="Line_81" data-name="Line 81" x2="16" y2="27" transform="translate(848.5 1543.5)" fill="none" stroke="#002842" stroke-width="3"/>
    <line id="Line_82" data-name="Line 82" x2="15" y2="26" transform="translate(859.5 1537.5)" fill="none" stroke="#002842" stroke-width="3"/>
    <path id="Path_23" data-name="Path 23" d="M-1199.383,1746.4l28.116-44.923s8.154-9.154,18.461-3.462,6.385,17.077,6.385,17.077l-18.461,30.865" transform="translate(2036 -132)" fill="none" stroke="#002842" stroke-width="3"/>
  </g>
</svg>
